<?xml version="1.0" encoding="utf-8"?>
<!-- Generator: Adobe Illustrator 17.0.0, SVG Export Plug-In . SVG Version: 6.00 Build 0)  -->
<!DOCTYPE svg PUBLIC "-//W3C//DTD SVG 1.1//EN" "http://www.w3.org/Graphics/SVG/1.1/DTD/svg11.dtd">
<svg version="1.1" id="Layer_1" xmlns="http://www.w3.org/2000/svg" xmlns:xlink="http://www.w3.org/1999/xlink" x="0px" y="0px"
	 width="388.027px" height="240.009px" viewBox="0 0 388.027 240.009" enable-background="new 0 0 388.027 240.009"
	 xml:space="preserve">
<g>
	<defs>
		<rect id="SVGID_1_" width="388.027" height="240.009"/>
	</defs>
	<clipPath id="SVGID_2_">
		<use xlink:href="#SVGID_1_"  overflow="visible"/>
	</clipPath>
	<path clip-path="url(#SVGID_2_)" fill="#FFFFFF" d="M388.027,204.821l-40.368-40.368c-11.375,11.375-27.09,18.411-44.448,18.411
		c-24.497,0-45.704-13.563-56.078-33.738c-4.726,20.433-14.572,39.587-28.906,55.985c21.742,21.599,51.813,34.898,84.984,34.898
		C336.296,240.009,366.298,226.55,388.027,204.821"/>
	<path clip-path="url(#SVGID_2_)" fill="#FFFFFF" d="M120.005,240.01c33.085,0,63.086-13.459,84.816-35.188
		c2.285-2.285,4.475-4.655,6.578-7.098c17.894-20.794,28.952-47.189,28.953-76.795v-0.003c0-34.717,28.143-63.78,62.859-63.78
		c17.358,0,33.073,7.035,44.448,18.411l40.368-40.368c-21.729-21.73-51.731-35.188-84.816-35.188
		c-66.171,0-120.004,54.754-120.004,120.925c0,17.357-7.378,32.152-18.754,43.527c-11.375,11.375-27.09,18.411-44.448,18.411
		c-34.716,0-62.859-27.222-62.859-61.938c0-34.717,28.143-63.78,62.859-63.78V0.001C53.834,0.001,0.001,54.755,0.001,120.926
		C0.001,187.096,53.834,240.01,120.005,240.01"/>
</g>
</svg>
